OFF
284 212 0
-37.820966 97.346994 10.629043
2.966149 18.414268 -26.141708
-40.323554 33.700926 -90.874077
73.204111 -9.166089 74.679182
71.695927 -47.522372 13.508359
1.971745 -6.875518 -66.474006
-5.316420 12.233975 -22.062235
2.966149 18.414268 -26.141708
58.919430 -49.391367 14.995294
71.695927 -47.522372 13.508359
45.664964 -66.946173 26.329575
41.171036 -62.634876 23.737037
2.966149 18.414268 -26.141708
-6.310824 -13.055811 -62.394533
1.971745 -6.875518 -66.474006
-5.316420 12.233975 -22.062235
-6.310824 -13.055811 -62.394533
-40.323554 33.700926 -90.874077
1.971745 -6.875518 -66.474006
-48.606123 27.520633 -86.794604
-64.017663 73.708228 16.728210
-47.611719 52.810419 -46.462306
-65.360113 39.566910 -37.720563
-40.323554 33.700926 -90.874077
-48.606123 27.520633 -86.794604
-37.820966 97.346994 10.629043
-70.525558 68.852162 19.933589
-70.639491 68.770162 19.994717
-70.752724 68.694814 20.065697
-70.864211 68.626796 20.145839
-70.973505 68.566339 20.234751
-71.079857 68.513896 20.331892
-71.182523 68.469920 20.436722
-71.281212 68.434314 20.548580
-71.375032 68.407538 20.666681
-71.463537 68.389819 20.790631
-71.546297 68.380960 20.919356
-71.622569 68.381307 21.052143
-71.692211 68.390758 21.188577
-71.543050 72.184226 27.238422
-71.543050 72.184226 27.238422
73.204111 -9.166089 74.679182
-37.820966 97.346994 10.629043
39.482027 -34.328857 91.288560
73.204111 -9.166089 74.679182
45.664964 -66.946173 26.329575
71.695927 -47.522372 13.508359
47.007414 -32.804855 80.778348
40.499519 -37.660921 83.983728
40.385586 -37.742921 84.044856
40.272353 -37.818269 84.115835
40.160866 -37.886287 84.195977
40.051573 -37.946744 84.284890
39.945220 -37.999187 84.382031
39.842555 -38.043163 84.486861
39.743865 -38.078769 84.598719
39.650045 -38.105545 84.716820
39.561540 -38.123264 84.840770
39.478780 -38.132123 84.969495
39.402508 -38.131776 85.102282
39.332867 -38.122325 85.238716
39.482027 -34.328857 91.288560
-6.310824 -13.055811 -62.394533
-47.611719 52.810419 -46.462306
-48.606123 27.520633 -86.794604
-43.117844 48.499172 -43.869799
-41.775394 82.640490 10.578974
-5.316420 12.233975 -22.062235
60.261880 -15.250048 69.444067
58.919430 -49.391367 14.995294
45.664964 -66.946173 26.329575
42.513486 -28.493557 78.185810
41.171036 -62.634876 23.737037
47.007414 -32.804855 80.778348
42.513486 -28.493557 78.185810
58.919430 -49.391367 14.995294
41.171036 -62.634876 23.737037
60.261880 -15.250048 69.444067
-60.866238 35.255663 -35.128056
-47.611719 52.810419 -46.462306
-43.117844 48.499172 -43.869799
-65.360113 39.566910 -37.720563
-60.866238 35.255663 -35.128056
-64.017663 73.708228 16.728210
-65.360113 39.566910 -37.720563
-59.523788 69.396982 19.320717
40.499519 -37.660921 83.983728
42.513486 -28.493557 78.185810
47.007414 -32.804855 80.778348
-59.523788 69.396982 19.320717
-64.017663 73.708228 16.728210
-70.525558 68.852162 19.933589
-41.775394 82.640490 10.578974
60.261880 -15.250048 69.444067
40.385586 -37.742921 84.044856
-70.525558 68.852162 19.933589
40.499519 -37.660921 83.983728
-70.639491 68.770162 19.994717
40.272353 -37.818269 84.115835
-70.752724 68.694814 20.065697
40.160866 -37.886287 84.195977
-70.864211 68.626796 20.145839
40.051573 -37.946744 84.284890
-70.973505 68.566339 20.234751
39.945220 -37.999187 84.382031
-71.079857 68.513896 20.331892
39.842555 -38.043163 84.486861
-71.182523 68.469920 20.436722
39.743865 -38.078769 84.598719
-71.281212 68.434314 20.548580
39.650045 -38.105545 84.716820
-71.375032 68.407538 20.666681
39.561540 -38.123264 84.840770
-71.463537 68.389819 20.790631
39.478780 -38.132123 84.969495
-71.546297 68.380960 20.919356
-71.622569 68.381307 21.052143
39.402508 -38.131776 85.102282
-71.692211 68.390758 21.188577
39.332867 -38.122325 85.238716
39.332867 -38.122325 85.238716
-71.543050 72.184226 27.238422
-71.692211 68.390758 21.188577
39.482027 -34.328857 91.288560
-41.775394 82.640490 10.578974
-60.866238 35.255663 -35.128056
-43.117844 48.499172 -43.869799
-59.523788 69.396982 19.320717
-33.724023 89.917378 7.691411
-35.260385 92.703492 8.793018
-35.310106 91.439003 6.776403
-33.674303 91.181868 9.708026
-35.260385 92.703492 8.793018
-27.027507 97.619318 2.696916
-35.310106 91.439003 6.776403
-26.977786 98.883808 4.713531
-33.724023 89.917378 7.691411
-27.027507 97.619318 2.696916
-25.441425 96.097694 3.611923
-35.310106 91.439003 6.776403
-25.391704 97.362183 5.628538
-33.724023 89.917378 7.691411
-25.441425 96.097694 3.611923
-33.674303 91.181868 9.708026
-35.260385 92.703492 8.793018
-25.391704 97.362183 5.628538
-26.977786 98.883808 4.713531
-33.674303 91.181868 9.708026
-25.391704 97.362183 5.628538
-27.027507 97.619318 2.696916
-26.977786 98.883808 4.713531
-25.441425 96.097694 3.611923
70.428076 -10.002041 67.776543
68.891728 -7.215940 68.878158
68.842007 -8.480429 66.861543
70.477796 -8.737552 69.793158
78.760395 -2.557236 65.713670
70.428076 -10.002041 67.776543
78.710675 -3.821725 63.697055
70.477796 -8.737552 69.793158
68.891728 -7.215940 68.878158
78.760395 -2.557236 65.713670
77.174326 -1.035624 64.798670
70.477796 -8.737552 69.793158
68.891728 -7.215940 68.878158
77.124606 -2.300114 62.782055
68.842007 -8.480429 66.861543
77.174326 -1.035624 64.798670
70.428076 -10.002041 67.776543
77.124606 -2.300114 62.782055
78.710675 -3.821725 63.697055
68.842007 -8.480429 66.861543
78.760395 -2.557236 65.713670
77.124606 -2.300114 62.782055
77.174326 -1.035624 64.798670
78.710675 -3.821725 63.697055
69.135346 -42.878870 15.344385
67.598998 -40.092758 16.446017
67.549278 -41.357258 14.429385
69.185067 -41.614370 17.361017
77.467666 -35.434054 13.281529
69.135346 -42.878870 15.344385
77.417945 -36.698554 11.264897
69.185067 -41.614370 17.361017
67.598998 -40.092758 16.446017
77.467666 -35.434054 13.281529
75.881597 -33.912443 12.366529
69.185067 -41.614370 17.361017
67.598998 -40.092758 16.446017
75.831877 -35.176943 10.349897
67.549278 -41.357258 14.429385
75.881597 -33.912443 12.366529
69.135346 -42.878870 15.344385
75.831877 -35.176943 10.349897
77.417945 -36.698554 11.264897
67.549278 -41.357258 14.429385
77.467666 -35.434054 13.281529
75.831877 -35.176943 10.349897
75.881597 -33.912443 12.366529
77.417945 -36.698554 11.264897
7.743483 5.212789 -66.700853
6.107695 5.469911 -69.632468
6.157415 6.734401 -67.615853
7.693763 3.948299 -68.717468
-2.125184 0.554085 -63.536365
6.107695 5.469911 -69.632468
-2.174904 -0.710404 -65.552980
6.157415 6.734401 -67.615853
-2.125184 0.554085 -63.536365
7.743483 5.212789 -66.700853
6.157415 6.734401 -67.615853
-0.539115 -0.967527 -62.621366
7.743483 5.212789 -66.700853
-0.588836 -2.232016 -64.637981
7.693763 3.948299 -68.717468
-0.539115 -0.967527 -62.621366
-0.588836 -2.232016 -64.637981
6.107695 5.469911 -69.632468
7.693763 3.948299 -68.717468
-2.174904 -0.710404 -65.552980
-0.588836 -2.232016 -64.637981
-2.125184 0.554085 -63.536365
-2.174904 -0.710404 -65.552980
-0.539115 -0.967527 -62.621366
-36.011157 31.750763 -85.073045
-37.547519 34.536877 -83.971438
-37.597240 33.272388 -85.988053
-35.961437 33.015253 -83.056430
-37.547519 34.536877 -83.971438
-27.678838 39.195568 -87.135918
-29.264920 40.717193 -88.050925
-35.961437 33.015253 -83.056430
-37.547519 34.536877 -83.971438
-29.314641 39.452703 -90.067540
-37.597240 33.272388 -85.988053
-29.264920 40.717193 -88.050925
-36.011157 31.750763 -85.073045
-29.314641 39.452703 -90.067540
-27.728558 37.931079 -89.152533
-37.597240 33.272388 -85.988053
-27.678838 39.195568 -87.135918
-36.011157 31.750763 -85.073045
-27.728558 37.931079 -89.152533
-35.961437 33.015253 -83.056430
-27.678838 39.195568 -87.135918
-29.314641 39.452703 -90.067540
-29.264920 40.717193 -88.050925
-27.728558 37.931079 -89.152533
-15.185021 -19.677565 -58.023662
-56.485916 46.188664 -42.091435
-57.480320 20.898878 -82.423733
-51.992041 41.877418 -39.498928
-50.649591 76.018736 14.949845
-12.848167 39.753539 36.757409
-48.606123 27.520633 -86.794604
-47.611719 52.810419 -46.462306
-6.310824 -13.055811 -62.394533
-3.973970 46.375293 32.386538
-41.775394 82.640490 10.578974
-43.117844 48.499172 -43.869799
60.261880 -15.250048 69.444067
-5.316420 12.233975 -22.062235
-3.973970 46.375293 32.386538
58.919430 -49.391367 14.995294
50.045233 -56.013121 19.366166
-14.190617 5.612221 -17.691364
-12.848167 39.753539 36.757409
51.387683 -21.871803 73.814939
50.678936 -29.239159 62.791837
28.183298 -38.485012 86.410453
27.162205 -45.360496 76.746743
51.700034 -22.363568 72.455717
-37.073645 16.264846 39.689213
-13.556913 32.386183 25.734307
-12.535815 39.261774 35.398188
-36.052551 23.140330 49.352923
-12.535815 39.261774 35.398188
-51.358338 68.651380 3.926743
-50.337240 75.526971 13.590624
-13.556913 32.386183 25.734307
-36.052701 23.140218 49.352997
-37.073795 16.264734 39.689287
-74.875220 52.529931 17.881723
-73.854126 59.405414 27.545433
3 0 1 2
3 1 0 3
3 1 3 4
3 5 2 1
3 6 7 8
3 9 8 7
3 8 9 10
3 8 10 11
3 12 13 14
3 13 12 15
3 16 17 18
3 17 16 19
3 20 21 22
3 21 23 24
3 23 21 25
3 25 21 20
3 25 20 26
3 25 26 27
3 25 27 28
3 25 28 29
3 25 29 30
3 25 30 31
3 25 31 32
3 25 32 33
3 25 33 34
3 25 34 35
3 25 35 36
3 25 36 37
3 25 37 38
3 25 38 39
3 40 41 42
3 41 40 43
3 44 45 46
3 45 44 47
3 47 44 48
3 48 44 49
3 49 44 50
3 50 44 51
3 51 44 52
3 52 44 53
3 53 44 54
3 54 44 55
3 55 44 56
3 56 44 57
3 57 44 58
3 58 44 59
3 59 44 60
3 60 44 61
3 62 63 64
3 63 62 65
3 65 62 66
3 66 62 67
3 66 67 68
3 68 67 69
3 70 71 72
3 71 70 73
3 74 75 76
3 75 74 77
3 78 79 80
3 79 78 81
3 82 83 84
3 83 82 85
3 86 87 88
3 87 86 89
3 89 86 90
3 90 86 91
3 87 92 93
3 92 87 89
3 94 95 96
3 95 94 97
3 98 97 94
3 97 98 99
3 100 99 98
3 99 100 101
3 102 101 100
3 101 102 103
3 104 103 102
3 103 104 105
3 106 105 104
3 105 106 107
3 108 107 106
3 107 108 109
3 110 109 108
3 109 110 111
3 112 111 110
3 111 112 113
3 114 113 112
3 113 114 115
3 114 116 115
3 116 114 117
3 117 118 116
3 118 117 119
3 120 121 122
3 121 120 123
3 124 125 126
3 125 124 127
3 128 129 130
3 129 128 131
3 132 133 134
3 133 132 135
3 136 137 138
3 137 136 139
3 140 141 142
3 141 140 143
3 144 145 146
3 145 144 147
3 148 149 150
3 149 148 151
3 152 153 154
3 153 152 155
3 156 157 158
3 157 156 159
3 160 161 162
3 161 160 163
3 164 165 166
3 165 164 167
3 168 169 170
3 169 168 171
3 172 173 174
3 173 172 175
3 176 177 178
3 177 176 179
3 180 181 182
3 181 180 183
3 184 185 186
3 185 184 187
3 188 189 190
3 189 188 191
3 192 193 194
3 193 192 195
3 196 197 198
3 197 196 199
3 200 201 202
3 201 200 203
3 204 205 206
3 205 204 207
3 208 209 210
3 209 208 211
3 212 213 214
3 213 212 215
3 216 217 218
3 217 216 219
3 220 221 222
3 221 220 223
3 224 225 226
3 225 224 227
3 228 229 230
3 229 228 231
3 232 233 234
3 233 232 235
3 236 237 238
3 237 236 239
3 240 241 242
3 241 240 243
3 244 245 246
3 245 244 247
3 248 249 250
3 249 248 251
3 251 248 252
3 252 248 253
3 249 254 250
3 254 249 255
3 248 254 256
3 254 248 250
3 257 248 256
3 248 257 253
3 252 257 258
3 257 252 253
3 252 259 251
3 259 252 258
3 249 259 255
3 259 249 251
3 257 259 258
3 259 254 255
3 254 259 256
3 256 259 257
3 260 261 262
3 261 260 263
3 264 261 263
3 261 264 265
3 266 261 265
3 261 266 262
3 266 260 262
3 260 266 267
3 260 264 263
3 264 260 267
3 264 266 265
3 266 264 267
3 268 269 270
3 269 268 271
3 268 272 273
3 272 268 270
3 274 268 273
3 268 274 271
3 269 274 275
3 274 269 271
3 269 272 270
3 272 269 275
3 274 272 275
3 272 274 273
3 276 277 278
3 277 276 279
3 279 280 281
3 280 279 276
3 281 277 279
3 277 281 282
3 283 277 282
3 277 283 278
3 278 280 276
3 280 278 283
3 281 283 282
3 283 281 280
